<svg width="36" height="37" viewBox="0 0 36 37" fill="none" xmlns="http://www.w3.org/2000/svg">
<path d="M25.626 8.49829C25.626 7.99266 25.8268 7.50773 26.1844 7.1502C26.5419 6.79266 27.0268 6.5918 27.5325 6.5918C28.0381 6.5918 28.523 6.79266 28.8806 7.1502C29.2381 7.50773 29.439 7.99266 29.439 8.49829C29.439 9.00392 29.2381 9.48885 28.8806 9.84638C28.523 10.2039 28.0381 10.4048 27.5325 10.4048C27.0268 10.4048 26.5419 10.2039 26.1844 9.84638C25.8268 9.48885 25.626 9.00392 25.626 8.49829Z" fill="black"/>
<path fill-rule="evenodd" clip-rule="evenodd" d="M17.9999 8.97461C15.5982 8.97461 13.2948 9.9287 11.5965 11.627C9.89819 13.3253 8.94409 15.6287 8.94409 18.0305C8.94409 20.4322 9.89819 22.7356 11.5965 24.4339C13.2948 26.1322 15.5982 27.0863 17.9999 27.0863C20.4017 27.0863 22.7051 26.1322 24.4034 24.4339C26.1017 22.7356 27.0558 20.4322 27.0558 18.0305C27.0558 15.6287 26.1017 13.3253 24.4034 11.627C22.7051 9.9287 20.4017 8.97461 17.9999 8.97461ZM11.8038 18.0305C11.8038 16.3871 12.4566 14.8111 13.6186 13.6491C14.7806 12.4872 16.3566 11.8343 17.9999 11.8343C19.6432 11.8343 21.2192 12.4872 22.3812 13.6491C23.5432 14.8111 24.196 16.3871 24.196 18.0305C24.196 19.6738 23.5432 21.2498 22.3812 22.4118C21.2192 23.5738 19.6432 24.2266 17.9999 24.2266C16.3566 24.2266 14.7806 23.5738 13.6186 22.4118C12.4566 21.2498 11.8038 19.6738 11.8038 18.0305Z" fill="black"/>
<path fill-rule="evenodd" clip-rule="evenodd" d="M28.0243 0.554183C21.3619 -0.184728 14.6381 -0.184728 7.97566 0.554183C4.1398 0.983144 1.04174 4.00493 0.591812 7.85986C-0.197271 14.6177 -0.197271 21.4443 0.591812 28.2021C1.04174 32.0571 4.13789 35.0789 7.97566 35.5078C14.6382 36.2452 21.3618 36.2452 28.0243 35.5078C31.8602 35.0789 34.9583 32.0571 35.4082 28.2021C36.1973 21.4443 36.1973 14.6177 35.4082 7.85986C34.9583 4.00493 31.8621 0.983144 28.0243 0.554183ZM8.29214 3.39486C14.7443 2.67937 21.2557 2.67937 27.7079 3.39486C30.2435 3.68083 32.2739 5.68074 32.5694 8.1935C33.3342 14.7295 33.3342 21.3325 32.5694 27.8685C32.4166 29.0983 31.8536 30.2406 30.9715 31.111C30.0894 31.9813 28.9396 32.5289 27.7079 32.6652C21.2557 33.3807 14.7443 33.3807 8.29214 32.6652C7.06043 32.5289 5.91065 31.9813 5.02852 31.111C4.14639 30.2406 3.58343 29.0983 3.43058 27.8685C2.6658 21.3325 2.6658 14.7295 3.43058 8.1935C3.58343 6.96373 4.14639 5.8214 5.02852 4.95104C5.91065 4.08067 7.06043 3.53119 8.29214 3.39486Z" fill="black"/>
</svg>
